<?xml version="1.0" encoding="UTF-8"?>
<svg xmlns="http://www.w3.org/2000/svg" xmlns:xlink="http://www.w3.org/1999/xlink" width="20px" height="20px" viewBox="0 0 20 20" version="1.1">
<g id="surface1">
<path style=" stroke:none;fill-rule:nonzero;fill:rgb(0%,0%,0%);fill-opacity:1;" d="M 1.667969 9.167969 L 18.332031 9.167969 L 18.332031 16.667969 C 18.332031 17.125 17.960938 17.5 17.5 17.5 L 2.5 17.5 C 2.039062 17.5 1.667969 17.125 1.667969 16.667969 Z M 14.167969 2.5 L 17.5 2.5 C 17.960938 2.5 18.332031 2.875 18.332031 3.332031 L 18.332031 7.5 L 1.667969 7.5 L 1.667969 3.332031 C 1.667969 2.875 2.039062 2.5 2.5 2.5 L 5.832031 2.5 L 5.832031 0.832031 L 7.5 0.832031 L 7.5 2.5 L 12.5 2.5 L 12.5 0.832031 L 14.167969 0.832031 Z M 14.167969 2.5 "/>
</g>
</svg>
