<?xml version="1.0" encoding="UTF-8"?>
<svg xmlns="http://www.w3.org/2000/svg" xmlns:xlink="http://www.w3.org/1999/xlink" width="20px" height="20px" viewBox="0 0 20 20" version="1.1">
<g id="surface1">
<path style=" stroke:none;fill-rule:nonzero;fill:rgb(0%,0%,0%);fill-opacity:1;" d="M 18.5 7.9375 C 18.4375 7.625 18.125 7.4375 17.8125 7.4375 C 17.0625 7.5625 16.3125 7.1875 15.9375 6.5 C 15.5625 5.875 15.625 5 16.0625 4.4375 C 16.25 4.1875 16.25 3.8125 16 3.625 C 15 2.6875 13.8125 2 12.5 1.625 C 12.1875 1.5625 11.875 1.6875 11.75 2 C 11.4375 2.6875 10.75 3.125 10 3.125 C 9.25 3.125 8.5625 2.6875 8.25 2 C 8.125 1.6875 7.8125 1.5 7.5 1.625 C 6.1875 2 5 2.6875 4 3.6875 C 3.75 3.875 3.75 4.25 3.9375 4.5 C 4.375 5.125 4.4375 5.9375 4.0625 6.5625 C 3.6875 7.1875 2.9375 7.5625 2.1875 7.5 C 1.875 7.4375 1.5625 7.6875 1.5 8 C 1.3125 8.625 1.25 9.3125 1.25 10 C 1.25 10.6875 1.3125 11.375 1.5 12.0625 C 1.5625 12.375 1.875 12.5625 2.1875 12.5 C 2.9375 12.375 3.6875 12.75 4.0625 13.4375 C 4.4375 14.0625 4.375 14.9375 3.9375 15.5 C 3.75 15.75 3.75 16.125 4 16.3125 C 5 17.25 6.25 18 7.5625 18.375 C 7.875 18.4375 8.1875 18.3125 8.3125 18 C 8.625 17.3125 9.3125 16.875 10.0625 16.875 C 10.8125 16.875 11.5 17.3125 11.8125 18 C 11.9375 18.25 12.125 18.375 12.375 18.375 C 12.4375 18.375 12.5 18.375 12.5625 18.375 C 13.875 18 15.125 17.25 16.125 16.3125 C 16.375 16.0625 16.375 15.75 16.1875 15.5 C 15.75 14.875 15.6875 14.0625 16.0625 13.4375 C 16.4375 12.8125 17.1875 12.4375 17.9375 12.5 C 18.25 12.5625 18.5625 12.3125 18.625 12 C 18.8125 11.3125 18.875 10.625 18.875 9.9375 C 18.875 9.25 18.6875 8.625 18.5 7.9375 Z M 10 12.5 C 8.625 12.5 7.5 11.375 7.5 10 C 7.5 8.625 8.625 7.5 10 7.5 C 11.375 7.5 12.5 8.625 12.5 10 C 12.5 11.375 11.375 12.5 10 12.5 Z M 10 12.5 "/>
</g>
</svg>
