<?xml version="1.0" encoding="UTF-8"?>
<svg xmlns="http://www.w3.org/2000/svg" xmlns:xlink="http://www.w3.org/1999/xlink" width="20px" height="20px" viewBox="0 0 20 20" version="1.1">
<g id="surface1">
<path style=" stroke:none;fill-rule:nonzero;fill:rgb(0%,0%,0%);fill-opacity:1;" d="M 19.578125 16.242188 L 15.382812 12.046875 C 15.082031 11.761719 14.734375 11.617188 14.332031 11.617188 C 13.925781 11.617188 13.554688 11.78125 13.222656 12.113281 L 10.265625 9.15625 L 11.71875 7.699219 C 11.828125 7.589844 11.882812 7.460938 11.882812 7.304688 C 11.882812 7.152344 11.828125 7.019531 11.71875 6.914062 C 11.734375 6.929688 11.78125 6.976562 11.859375 7.058594 C 11.9375 7.136719 11.988281 7.1875 12.011719 7.203125 C 12.03125 7.21875 12.078125 7.253906 12.144531 7.316406 C 12.207031 7.378906 12.261719 7.417969 12.296875 7.433594 C 12.335938 7.449219 12.390625 7.472656 12.457031 7.503906 C 12.519531 7.53125 12.585938 7.554688 12.644531 7.566406 C 12.707031 7.578125 12.777344 7.582031 12.855469 7.582031 C 13.148438 7.582031 13.410156 7.476562 13.640625 7.257812 C 13.664062 7.234375 13.734375 7.171875 13.847656 7.070312 C 13.964844 6.964844 14.042969 6.890625 14.085938 6.847656 C 14.128906 6.804688 14.191406 6.734375 14.277344 6.636719 C 14.359375 6.535156 14.421875 6.449219 14.457031 6.378906 C 14.488281 6.3125 14.523438 6.226562 14.558594 6.125 C 14.59375 6.027344 14.609375 5.925781 14.609375 5.824219 C 14.609375 5.519531 14.503906 5.253906 14.289062 5.039062 L 9.570312 0.324219 C 9.355469 0.109375 9.09375 0 8.785156 0 C 8.683594 0 8.585938 0.0195312 8.484375 0.0507812 C 8.382812 0.0859375 8.300781 0.121094 8.230469 0.15625 C 8.160156 0.191406 8.078125 0.25 7.976562 0.335938 C 7.875 0.421875 7.804688 0.484375 7.761719 0.527344 C 7.71875 0.570312 7.648438 0.648438 7.542969 0.761719 C 7.4375 0.878906 7.375 0.949219 7.351562 0.972656 C 7.136719 1.203125 7.027344 1.464844 7.027344 1.757812 C 7.027344 1.835938 7.035156 1.902344 7.046875 1.964844 C 7.058594 2.027344 7.078125 2.089844 7.109375 2.15625 C 7.140625 2.222656 7.164062 2.273438 7.179688 2.3125 C 7.195312 2.351562 7.234375 2.402344 7.292969 2.46875 C 7.355469 2.535156 7.394531 2.578125 7.410156 2.601562 C 7.425781 2.625 7.472656 2.675781 7.554688 2.75 C 7.636719 2.828125 7.683594 2.875 7.699219 2.890625 C 7.589844 2.78125 7.460938 2.730469 7.304688 2.730469 C 7.152344 2.730469 7.019531 2.78125 6.914062 2.890625 L 2.890625 6.914062 C 2.78125 7.019531 2.726562 7.152344 2.726562 7.304688 C 2.726562 7.460938 2.78125 7.589844 2.890625 7.699219 C 2.875 7.683594 2.828125 7.636719 2.75 7.554688 C 2.675781 7.472656 2.625 7.425781 2.601562 7.410156 C 2.578125 7.394531 2.535156 7.355469 2.46875 7.292969 C 2.402344 7.234375 2.351562 7.195312 2.3125 7.179688 C 2.273438 7.164062 2.222656 7.140625 2.15625 7.109375 C 2.089844 7.078125 2.027344 7.058594 1.964844 7.046875 C 1.902344 7.035156 1.835938 7.027344 1.757812 7.027344 C 1.464844 7.027344 1.203125 7.136719 0.972656 7.351562 C 0.949219 7.375 0.878906 7.4375 0.761719 7.542969 C 0.648438 7.648438 0.570312 7.71875 0.527344 7.761719 C 0.484375 7.804688 0.421875 7.875 0.335938 7.976562 C 0.25 8.078125 0.191406 8.160156 0.15625 8.230469 C 0.121094 8.300781 0.0859375 8.386719 0.0507812 8.484375 C 0.015625 8.585938 0 8.6875 0 8.785156 C 0 9.09375 0.109375 9.355469 0.324219 9.570312 L 5.039062 14.289062 C 5.253906 14.503906 5.515625 14.609375 5.824219 14.609375 C 5.925781 14.609375 6.027344 14.59375 6.125 14.558594 C 6.226562 14.523438 6.3125 14.488281 6.378906 14.457031 C 6.449219 14.421875 6.535156 14.359375 6.636719 14.277344 C 6.734375 14.191406 6.804688 14.128906 6.847656 14.085938 C 6.890625 14.042969 6.964844 13.964844 7.066406 13.847656 C 7.171875 13.734375 7.234375 13.664062 7.257812 13.640625 C 7.476562 13.410156 7.582031 13.148438 7.582031 12.855469 C 7.582031 12.777344 7.578125 12.707031 7.566406 12.644531 C 7.554688 12.585938 7.53125 12.519531 7.5 12.457031 C 7.472656 12.390625 7.449219 12.335938 7.433594 12.300781 C 7.417969 12.261719 7.378906 12.207031 7.316406 12.144531 C 7.253906 12.078125 7.214844 12.035156 7.199219 12.011719 C 7.1875 11.988281 7.136719 11.9375 7.058594 11.859375 C 6.976562 11.78125 6.925781 11.734375 6.914062 11.722656 C 7.019531 11.828125 7.152344 11.882812 7.304688 11.882812 C 7.460938 11.882812 7.589844 11.828125 7.699219 11.722656 L 9.15625 10.265625 L 12.113281 13.222656 C 11.78125 13.554688 11.617188 13.925781 11.617188 14.332031 C 11.617188 14.75 11.761719 15.09375 12.054688 15.375 L 16.25 19.582031 C 16.535156 19.867188 16.882812 20.007812 17.292969 20.007812 C 17.691406 20.007812 18.042969 19.867188 18.34375 19.582031 L 19.582031 18.332031 C 19.867188 18.046875 20.007812 17.699219 20.007812 17.292969 C 20.007812 16.890625 19.867188 16.542969 19.578125 16.242188 Z M 19.578125 16.242188 "/>
</g>
</svg>
