<?xml version="1.0" encoding="UTF-8"?>
<svg xmlns="http://www.w3.org/2000/svg" xmlns:xlink="http://www.w3.org/1999/xlink" width="20px" height="20px" viewBox="0 0 20 20" version="1.1">
<g id="surface1">
<path style=" stroke:none;fill-rule:nonzero;fill:rgb(0%,0%,0%);fill-opacity:1;" d="M 17.273438 5.453125 L 16.363281 5.453125 L 16.363281 2.726562 C 16.363281 2.226562 15.957031 1.816406 15.453125 1.816406 C 14.953125 1.816406 14.546875 2.226562 14.546875 2.726562 L 14.546875 5.453125 C 14.546875 6.457031 15.359375 7.273438 16.363281 7.273438 L 16.363281 15 C 16.363281 15.25 16.160156 15.453125 15.910156 15.453125 C 15.65625 15.453125 15.453125 15.25 15.453125 15 L 15.453125 11.816406 C 15.453125 10.3125 14.234375 9.089844 12.726562 9.089844 L 12.726562 3.636719 C 12.726562 2.632812 11.914062 1.816406 10.910156 1.816406 L 3.636719 1.816406 C 2.632812 1.816406 1.816406 2.632812 1.816406 3.636719 L 1.816406 16.363281 C 1.816406 17.367188 2.632812 18.183594 3.636719 18.183594 L 10.910156 18.183594 C 11.914062 18.183594 12.726562 17.367188 12.726562 16.363281 L 12.726562 10.910156 C 13.230469 10.910156 13.636719 11.316406 13.636719 11.816406 L 13.636719 15 C 13.636719 16.253906 14.652344 17.273438 15.910156 17.273438 C 17.164062 17.273438 18.183594 16.253906 18.183594 15 L 18.183594 6.363281 C 18.183594 5.863281 17.773438 5.453125 17.273438 5.453125 Z M 10.910156 8.183594 C 10.917969 8.671875 10.527344 9.082031 10.035156 9.089844 L 4.582031 9.089844 C 4.070312 9.101562 3.648438 8.695312 3.636719 8.183594 L 3.636719 5.453125 C 3.636719 4.953125 4.042969 4.546875 4.546875 4.546875 L 10 4.546875 C 10.503906 4.546875 10.910156 4.953125 10.910156 5.453125 Z M 10.910156 8.183594 "/>
</g>
</svg>
