<?xml version="1.0" encoding="UTF-8"?>
<svg xmlns="http://www.w3.org/2000/svg" xmlns:xlink="http://www.w3.org/1999/xlink" width="20px" height="20px" viewBox="0 0 20 20" version="1.1">
<g id="surface1">
<path style=" stroke:none;fill-rule:nonzero;fill:rgb(0%,0%,0%);fill-opacity:1;" d="M 16.25 16.875 C 15.1875 16.875 14.375 16.0625 14.375 15 C 14.375 13.9375 15.1875 13.125 16.25 13.125 C 17.3125 13.125 18.125 13.9375 18.125 15 C 18.125 16.0625 17.3125 16.875 16.25 16.875 Z M 16.25 16.875 "/>
<path style=" stroke:none;fill-rule:nonzero;fill:rgb(0%,0%,0%);fill-opacity:1;" d="M 6.25 16.875 C 5.1875 16.875 4.375 16.0625 4.375 15 C 4.375 13.9375 5.1875 13.125 6.25 13.125 C 7.3125 13.125 8.125 13.9375 8.125 15 C 8.125 16.0625 7.3125 16.875 6.25 16.875 Z M 6.25 16.875 "/>
<path style=" stroke:none;fill-rule:nonzero;fill:rgb(0%,0%,0%);fill-opacity:1;" d="M 19.875 10.875 L 17.375 7.75 C 17.25 7.5625 17.0625 7.5 16.875 7.5 L 13.75 7.5 L 13.75 5.625 C 13.75 5.25 13.5 5 13.125 5 L 3.125 5 C 2.75 5 2.5 5.25 2.5 5.625 L 2.5 6.25 L 3.125 6.25 C 3.5 6.25 3.75 6.5 3.75 6.875 C 3.75 7.25 3.5 7.5 3.125 7.5 L 1.875 7.5 C 1.5 7.5 1.25 7.75 1.25 8.125 C 1.25 8.5 1.5 8.75 1.875 8.75 L 3.75 8.75 C 4.125 8.75 4.375 9 4.375 9.375 C 4.375 9.75 4.125 10 3.75 10 L 0.625 10 C 0.25 10 0 10.25 0 10.625 C 0 11 0.25 11.25 0.625 11.25 L 2.5 11.25 L 2.5 15 C 2.5 15.375 2.75 15.625 3.125 15.625 L 3.1875 15.625 C 3.125 15.4375 3.125 15.1875 3.125 15 C 3.125 13.25 4.5 11.875 6.25 11.875 C 8 11.875 9.375 13.25 9.375 15 C 9.375 15.1875 9.375 15.4375 9.3125 15.625 L 13.1875 15.625 C 13.125 15.4375 13.125 15.1875 13.125 15 C 13.125 13.25 14.5 11.875 16.25 11.875 C 18 11.875 19.375 13.25 19.375 15 C 19.375 15.1875 19.375 15.4375 19.3125 15.625 L 19.375 15.625 C 19.75 15.625 20 15.375 20 15 L 20 11.25 C 20 11.125 19.9375 11 19.875 10.875 Z M 19.875 10.875 "/>
</g>
</svg>
